<svg xmlns="http://www.w3.org/2000/svg" xml:space="preserve" width="50" height="50" viewBox="0 0 363.025 363.024"><path d="M181.512 0C81.43 0 0 81.427 0 181.513c0 100.082 81.43 181.512 181.512 181.512 100.083 0 181.513-81.424 181.513-181.512C363.025 81.421 281.595 0 181.512 0zm0 351.32c-73.487 0-136.2-46.939-159.79-112.388l197.877.383-35.463 35.469 8.914 8.909 50.639-50.65-51.53-51.524-8.909 8.914 36.287 36.286-201.783-.4a169.166 169.166 0 0 1-6.044-44.795c0-93.632 76.17-169.802 169.802-169.802 73.482 0 136.203 46.931 159.79 112.391l-196.888-.38 35.466-35.466-8.912-8.911-50.645 50.65 51.528 51.525 8.911-8.911-36.286-36.292 200.794.4a169.192 169.192 0 0 1 6.044 44.809c.001 93.603-76.175 169.783-169.802 169.783z" style="fill:#030303"/></svg>